<mxfile host="app.diagrams.net" agent="Mozilla/5.0 (Windows NT 10.0; Win64; x64) AppleWebKit/537.36 (KHTML, like Gecko) Chrome/136.0.0.0 Safari/537.36" version="27.0.1">
  <diagram name="Page-1" id="7moRFgs1ndt15yGjqXsT">
    <mxGraphModel dx="772" dy="483" grid="1" gridSize="10" guides="1" tooltips="1" connect="1" arrows="1" fold="1" page="1" pageScale="1" pageWidth="827" pageHeight="1169" math="0" shadow="0">
      <root>
        <mxCell id="0" />
        <mxCell id="1" parent="0" />
        <mxCell id="1OM1u_ri-cu9JDbSXFBB-1" value="&lt;h4&gt;&lt;br&gt;&lt;/h4&gt;" style="rounded=0;whiteSpace=wrap;html=1;align=center;" parent="1" vertex="1">
          <mxGeometry x="200" y="40" width="340" height="420" as="geometry" />
        </mxCell>
        <mxCell id="1OM1u_ri-cu9JDbSXFBB-2" value="&lt;h3&gt;&lt;font style=&quot;font-size: 13px;&quot;&gt;Garda Station System&lt;/font&gt;&lt;/h3&gt;" style="text;html=1;align=center;verticalAlign=middle;whiteSpace=wrap;rounded=0;" parent="1" vertex="1">
          <mxGeometry x="290" y="40" width="190" height="30" as="geometry" />
        </mxCell>
        <mxCell id="1OM1u_ri-cu9JDbSXFBB-3" value="User" style="shape=umlActor;verticalLabelPosition=bottom;verticalAlign=top;html=1;outlineConnect=0;" parent="1" vertex="1">
          <mxGeometry x="120" y="90" width="30" height="60" as="geometry" />
        </mxCell>
        <mxCell id="1OM1u_ri-cu9JDbSXFBB-4" value="&lt;div&gt;Generate Random Gardaí&lt;/div&gt;&lt;div&gt;&lt;br&gt;&lt;/div&gt;" style="ellipse;whiteSpace=wrap;html=1;align=center;" parent="1" vertex="1">
          <mxGeometry x="310" y="80" width="150" height="60" as="geometry" />
        </mxCell>
        <mxCell id="1OM1u_ri-cu9JDbSXFBB-5" value="" style="endArrow=open;endFill=1;endSize=12;html=1;rounded=0;exitX=1;exitY=0.3333333333333333;exitDx=0;exitDy=0;exitPerimeter=0;entryX=0;entryY=0.5;entryDx=0;entryDy=0;" parent="1" source="1OM1u_ri-cu9JDbSXFBB-3" target="1OM1u_ri-cu9JDbSXFBB-4" edge="1">
          <mxGeometry width="160" relative="1" as="geometry">
            <mxPoint x="320" y="240" as="sourcePoint" />
            <mxPoint x="480" y="240" as="targetPoint" />
          </mxGeometry>
        </mxCell>
        <mxCell id="1OM1u_ri-cu9JDbSXFBB-6" value="&lt;div&gt;Add Garda&lt;/div&gt;" style="ellipse;whiteSpace=wrap;html=1;" parent="1" vertex="1">
          <mxGeometry x="312.5" y="190" width="145" height="50" as="geometry" />
        </mxCell>
        <mxCell id="1OM1u_ri-cu9JDbSXFBB-7" value="&lt;div&gt;&amp;lt;&amp;lt;include&amp;gt;&amp;gt;&lt;/div&gt;" style="endArrow=open;html=1;rounded=0;exitX=0.5;exitY=1;exitDx=0;exitDy=0;entryX=0.5;entryY=0;entryDx=0;entryDy=0;dashed=1;" parent="1" source="1OM1u_ri-cu9JDbSXFBB-4" target="1OM1u_ri-cu9JDbSXFBB-6" edge="1">
          <mxGeometry width="160" relative="1" as="geometry">
            <mxPoint x="320" y="240" as="sourcePoint" />
            <mxPoint x="480" y="240" as="targetPoint" />
          </mxGeometry>
        </mxCell>
        <mxCell id="1OM1u_ri-cu9JDbSXFBB-8" value="Auto-generate Name" style="rounded=1;whiteSpace=wrap;html=1;" parent="1" vertex="1">
          <mxGeometry x="300" y="260" width="170" height="30" as="geometry" />
        </mxCell>
        <mxCell id="1OM1u_ri-cu9JDbSXFBB-11" value="Randomly assign Manager" style="rounded=1;whiteSpace=wrap;html=1;" parent="1" vertex="1">
          <mxGeometry x="300" y="310" width="170" height="30" as="geometry" />
        </mxCell>
        <mxCell id="1OM1u_ri-cu9JDbSXFBB-12" value="Randomly assign Department" style="rounded=1;whiteSpace=wrap;html=1;" parent="1" vertex="1">
          <mxGeometry x="300" y="360" width="170" height="30" as="geometry" />
        </mxCell>
        <mxCell id="1OM1u_ri-cu9JDbSXFBB-13" value="Display Generated Gardaí" style="rounded=1;whiteSpace=wrap;html=1;" parent="1" vertex="1">
          <mxGeometry x="300" y="410" width="170" height="30" as="geometry" />
        </mxCell>
        <mxCell id="1OM1u_ri-cu9JDbSXFBB-14" value="" style="endArrow=classic;html=1;rounded=0;exitX=0.5;exitY=1;exitDx=0;exitDy=0;entryX=0.5;entryY=0;entryDx=0;entryDy=0;" parent="1" source="1OM1u_ri-cu9JDbSXFBB-6" target="1OM1u_ri-cu9JDbSXFBB-8" edge="1">
          <mxGeometry width="50" height="50" relative="1" as="geometry">
            <mxPoint x="240" y="250" as="sourcePoint" />
            <mxPoint x="290" y="200" as="targetPoint" />
          </mxGeometry>
        </mxCell>
        <mxCell id="1OM1u_ri-cu9JDbSXFBB-15" value="" style="endArrow=classic;html=1;rounded=0;entryX=0.5;entryY=0;entryDx=0;entryDy=0;" parent="1" target="1OM1u_ri-cu9JDbSXFBB-11" edge="1">
          <mxGeometry width="50" height="50" relative="1" as="geometry">
            <mxPoint x="385" y="290" as="sourcePoint" />
            <mxPoint x="395" y="270" as="targetPoint" />
          </mxGeometry>
        </mxCell>
        <mxCell id="1OM1u_ri-cu9JDbSXFBB-16" value="" style="endArrow=classic;html=1;rounded=0;entryX=0.5;entryY=0;entryDx=0;entryDy=0;exitX=0.5;exitY=1;exitDx=0;exitDy=0;" parent="1" source="1OM1u_ri-cu9JDbSXFBB-11" target="1OM1u_ri-cu9JDbSXFBB-12" edge="1">
          <mxGeometry width="50" height="50" relative="1" as="geometry">
            <mxPoint x="395" y="300" as="sourcePoint" />
            <mxPoint x="395" y="320" as="targetPoint" />
          </mxGeometry>
        </mxCell>
        <mxCell id="1OM1u_ri-cu9JDbSXFBB-17" value="" style="endArrow=classic;html=1;rounded=0;entryX=0.5;entryY=0;entryDx=0;entryDy=0;exitX=0.5;exitY=1;exitDx=0;exitDy=0;" parent="1" source="1OM1u_ri-cu9JDbSXFBB-12" target="1OM1u_ri-cu9JDbSXFBB-13" edge="1">
          <mxGeometry width="50" height="50" relative="1" as="geometry">
            <mxPoint x="405" y="310" as="sourcePoint" />
            <mxPoint x="405" y="330" as="targetPoint" />
          </mxGeometry>
        </mxCell>
      </root>
    </mxGraphModel>
  </diagram>
</mxfile>
